<svg data-v-423bf9ae="" xmlns="http://www.w3.org/2000/svg" viewBox="0 0 466 90" class="iconLeftSlogan"><!----><!----><!----><g data-v-423bf9ae="" id="c2980b7b-2285-4729-9eb1-72ec89dbc4d2" fill="black" transform="matrix(4.4510387268192755,0,0,4.4510387268192755,59.72345934118931,0)"><path d="M2.34 9.35L2.34 5.92L6.34 5.92L6.34 5.05L2.34 5.05L2.34 1.44L6.93 1.44L6.93 0.57L1.43 0.57L1.43 10.22L7.08 10.22L7.08 9.35ZM12.05 3.54C11.24 3.54 10.18 3.92 9.79 4.86L9.79 3.68L8.89 3.68L8.89 10.22L9.79 10.22L9.79 6.59C9.81 5.01 10.92 4.42 11.97 4.42C13.02 4.42 13.82 5.19 13.82 6.45L13.82 10.22L14.71 10.22L14.71 6.41C14.71 4.61 13.64 3.54 12.05 3.54ZM22.33 3.68L22.33 4.94C21.84 4.06 20.83 3.54 19.73 3.54C17.89 3.54 16.41 4.96 16.41 6.94C16.41 8.93 17.91 10.36 19.73 10.36C20.82 10.36 21.84 9.84 22.33 8.96L22.33 9.30C22.33 11.82 21.28 12.63 19.68 12.63C18.90 12.63 18.09 12.24 17.61 11.47L16.86 11.89C17.50 12.95 18.58 13.48 19.68 13.48C21.81 13.48 23.23 12.42 23.23 9.25L23.23 3.68ZM19.80 9.51C18.42 9.51 17.30 8.39 17.30 6.93C17.30 5.49 18.42 4.40 19.80 4.40C21.10 4.40 22.33 5.39 22.33 6.97C22.33 8.48 21.15 9.51 19.80 9.51ZM30.94 3.68L30.94 4.94C30.45 4.06 29.44 3.54 28.34 3.54C26.50 3.54 25.02 4.96 25.02 6.94C25.02 8.93 26.52 10.36 28.34 10.36C29.43 10.36 30.45 9.84 30.94 8.95L30.94 10.22L31.84 10.22L31.84 3.68ZM28.41 9.51C27.03 9.51 25.91 8.39 25.91 6.93C25.91 5.49 27.03 4.40 28.41 4.40C29.71 4.40 30.94 5.39 30.94 6.97C30.94 8.48 29.76 9.51 28.41 9.51ZM39.55 3.68L39.55 4.94C39.06 4.06 38.05 3.54 36.95 3.54C35.11 3.54 33.63 4.96 33.63 6.94C33.63 8.93 35.13 10.36 36.95 10.36C38.04 10.36 39.06 9.84 39.55 8.96L39.55 9.30C39.55 11.82 38.50 12.63 36.90 12.63C36.12 12.63 35.31 12.24 34.83 11.47L34.08 11.89C34.72 12.95 35.80 13.48 36.90 13.48C39.03 13.48 40.45 12.42 40.45 9.25L40.45 3.68ZM37.02 9.51C35.64 9.51 34.52 8.39 34.52 6.93C34.52 5.49 35.64 4.40 37.02 4.40C38.32 4.40 39.55 5.39 39.55 6.97C39.55 8.48 38.37 9.51 37.02 9.51ZM48.79 6.93C48.79 4.86 47.43 3.54 45.57 3.54C43.72 3.54 42.24 4.86 42.24 6.93C42.24 9.00 43.72 10.36 45.57 10.36C46.80 10.36 47.92 9.77 48.50 8.72L47.73 8.39C47.29 9.10 46.49 9.51 45.60 9.51C44.28 9.51 43.30 8.72 43.15 7.32L48.78 7.32C48.79 7.20 48.79 7.06 48.79 6.93ZM43.16 6.55C43.33 5.15 44.28 4.40 45.57 4.40C46.84 4.40 47.78 5.19 47.91 6.55ZM59.30 5.08C60.20 4.72 60.58 3.82 60.58 2.95C60.58 1.46 59.57 0.57 58.02 0.57L54.52 0.57L54.52 10.22L58.37 10.22C60.07 10.22 61.10 8.93 61.10 7.56C61.10 6.55 60.54 5.40 59.30 5.08ZM58.00 1.44C59.02 1.44 59.65 2.04 59.65 3.02C59.65 3.98 59.14 4.72 58.18 4.72L55.44 4.72L55.44 1.44ZM58.21 9.35L55.44 9.35L55.44 5.53L58.17 5.53C59.43 5.53 60.17 6.45 60.17 7.49C60.17 8.48 59.46 9.35 58.21 9.35ZM65.97 10.36C67.83 10.36 69.40 9.00 69.40 6.93C69.40 4.86 67.83 3.54 65.97 3.54C64.11 3.54 62.55 4.86 62.55 6.93C62.55 9.00 64.11 10.36 65.97 10.36ZM65.97 9.51C64.58 9.51 63.45 8.48 63.45 6.93C63.45 5.39 64.58 4.40 65.97 4.40C67.34 4.40 68.50 5.39 68.50 6.93C68.50 8.48 67.34 9.51 65.97 9.51ZM76.65 3.68L76.65 4.94C76.16 4.06 75.15 3.54 74.05 3.54C72.21 3.54 70.73 4.96 70.73 6.94C70.73 8.93 72.23 10.36 74.05 10.36C75.14 10.36 76.16 9.84 76.65 8.95L76.65 10.22L77.55 10.22L77.55 3.68ZM74.12 9.51C72.74 9.51 71.62 8.39 71.62 6.93C71.62 5.49 72.74 4.40 74.12 4.40C75.42 4.40 76.65 5.39 76.65 6.97C76.65 8.48 75.47 9.51 74.12 9.51ZM82.74 3.54C81.72 3.54 81.02 4.17 80.70 5.28L80.70 3.68L79.79 3.68L79.79 10.22L80.70 10.22L80.70 7.76C80.70 6.15 81.17 4.41 82.73 4.41C82.96 4.41 83.27 4.45 83.61 4.59L83.78 3.74C83.52 3.61 83.10 3.54 82.74 3.54ZM90.17 0L90.17 4.94C89.68 4.06 88.68 3.54 87.57 3.54C85.74 3.54 84.25 4.96 84.25 6.94C84.25 8.93 85.75 10.36 87.57 10.36C88.66 10.36 89.68 9.84 90.17 8.95L90.17 10.22L91.07 10.22L91.07 0ZM87.64 9.51C86.27 9.51 85.15 8.39 85.15 6.93C85.15 5.49 86.27 4.40 87.64 4.40C88.94 4.40 90.17 5.39 90.17 6.97C90.17 8.48 89.00 9.51 87.64 9.51Z"></path></g><!----><g data-v-423bf9ae="" id="f8d9241d-0237-4f6d-abc2-ae9dd2dc40a0" transform="matrix(2.8125,0,0,2.8125,-21.194407999515533,0)" stroke="none" fill="black"><path d="M18.396 26.495L7.807 15.905 18.432 5.28l.707.707-9.918 9.918 9.882 9.883z"></path><path d="M23.194 1v4.194H19V1h4.194m1-1H18v6.194h6.194V0zM23.194 26.806V31H19v-4.194h4.194m1-1H18V32h6.194v-6.194z"></path></g><!----><g data-v-423bf9ae="" id="5183228b-4133-4e99-820f-28cbebb84b31" fill="black" transform="matrix(0.9552668732002696,0,0,0.9552668732002696,65.25735850416751,56.52283009709752)"><path d="M8.76 10.68L8.76 10.68Q8.37 11.86 7.40 12.51L7.40 12.51L7.40 12.51Q6.43 13.16 5.07 13.16L5.07 13.16L5.07 13.16Q3.81 13.16 2.86 12.58L2.86 12.58L2.86 12.58Q1.90 12.00 1.39 10.92L1.39 10.92L1.39 10.92Q0.87 9.84 0.87 8.40L0.87 8.40L0.87 8.40Q0.87 6.96 1.39 5.88L1.39 5.88L1.39 5.88Q1.90 4.80 2.86 4.22L2.86 4.22L2.86 4.22Q3.81 3.64 5.05 3.64L5.05 3.64L5.05 3.64Q7.83 3.64 8.64 5.92L8.64 5.92L7.95 6.24L7.95 6.24Q7.63 5.26 6.92 4.77L6.92 4.77L6.92 4.77Q6.22 4.28 5.10 4.28L5.10 4.28L5.10 4.28Q4.06 4.28 3.27 4.78L3.27 4.78L3.27 4.78Q2.48 5.28 2.04 6.21L2.04 6.21L2.04 6.21Q1.61 7.14 1.61 8.40L1.61 8.40L1.61 8.40Q1.61 9.66 2.04 10.59L2.04 10.59L2.04 10.59Q2.46 11.52 3.24 12.02L3.24 12.02L3.24 12.02Q4.02 12.52 5.07 12.52L5.07 12.52L5.07 12.52Q6.19 12.52 6.97 11.97L6.97 11.97L6.97 11.97Q7.76 11.42 8.06 10.42L8.06 10.42L8.76 10.68ZM21.49 3.64L21.49 3.64Q22.79 3.64 23.75 4.22L23.75 4.22L23.75 4.22Q24.71 4.80 25.23 5.87L25.23 5.87L25.23 5.87Q25.75 6.94 25.75 8.40L25.75 8.40L25.75 8.40Q25.75 9.86 25.23 10.93L25.23 10.93L25.23 10.93Q24.71 12.00 23.75 12.58L23.75 12.58L23.75 12.58Q22.79 13.16 21.49 13.16L21.49 13.16L21.49 13.16Q20.19 13.16 19.23 12.58L19.23 12.58L19.23 12.58Q18.27 12.00 17.75 10.93L17.75 10.93L17.75 10.93Q17.23 9.86 17.23 8.40L17.23 8.40L17.23 8.40Q17.23 6.94 17.75 5.87L17.75 5.87L17.75 5.87Q18.27 4.80 19.23 4.22L19.23 4.22L19.23 4.22Q20.19 3.64 21.49 3.64L21.49 3.64ZM21.49 4.28L21.49 4.28Q20.41 4.28 19.62 4.78L19.62 4.78L19.62 4.78Q18.83 5.28 18.40 6.21L18.40 6.21L18.40 6.21Q17.98 7.14 17.98 8.40L17.98 8.40L17.98 8.40Q17.98 9.66 18.40 10.59L18.40 10.59L18.40 10.59Q18.83 11.52 19.62 12.02L19.62 12.02L19.62 12.02Q20.41 12.52 21.49 12.52L21.49 12.52L21.49 12.52Q22.57 12.52 23.37 12.02L23.37 12.02L23.37 12.02Q24.16 11.52 24.59 10.59L24.59 10.59L24.59 10.59Q25.02 9.66 25.02 8.40L25.02 8.40L25.02 8.40Q25.02 7.14 24.59 6.21L24.59 6.21L24.59 6.21Q24.16 5.28 23.37 4.78L23.37 4.78L23.37 4.78Q22.57 4.28 21.49 4.28L21.49 4.28ZM35.77 12.38L41.31 12.38L41.31 13.02L35.07 13.02L35.07 3.78L35.77 3.78L35.77 12.38ZM50.78 12.38L56.32 12.38L56.32 13.02L50.08 13.02L50.08 3.78L50.78 3.78L50.78 12.38ZM71.37 13.02L70.21 10.12L65.79 10.12L64.64 13.02L63.90 13.02L67.59 3.78L68.42 3.78L72.11 13.02L71.37 13.02ZM66.05 9.48L69.96 9.48L68.35 5.45L68.01 4.47L68.00 4.47L67.66 5.42L66.05 9.48ZM80.84 13.02L80.84 3.78L84.10 3.78L84.10 3.78Q85.61 3.78 86.36 4.41L86.36 4.41L86.36 4.41Q87.11 5.04 87.11 6.23L87.11 6.23L87.11 6.23Q87.11 7.04 86.67 7.60L86.67 7.60L86.67 7.60Q86.23 8.16 85.41 8.33L85.41 8.33L85.41 8.34L85.41 8.34Q86.31 8.48 86.83 9.07L86.83 9.07L86.83 9.07Q87.36 9.66 87.36 10.53L87.36 10.53L87.36 10.53Q87.36 11.72 86.51 12.37L86.51 12.37L86.51 12.37Q85.67 13.02 84.10 13.02L84.10 13.02L80.84 13.02ZM81.54 8.04L84.11 8.04L84.11 8.04Q86.37 8.04 86.37 6.23L86.37 6.23L86.37 6.23Q86.37 4.42 84.11 4.42L84.11 4.42L81.54 4.42L81.54 8.04ZM81.54 12.38L84.24 12.38L84.24 12.38Q85.41 12.38 86.02 11.90L86.02 11.90L86.02 11.90Q86.62 11.42 86.62 10.53L86.62 10.53L86.62 10.53Q86.62 9.62 86.02 9.15L86.02 9.15L86.02 9.15Q85.41 8.68 84.24 8.68L84.24 8.68L81.54 8.68L81.54 12.38ZM100.35 3.64L100.35 3.64Q101.65 3.64 102.61 4.22L102.61 4.22L102.61 4.22Q103.57 4.80 104.09 5.87L104.09 5.87L104.09 5.87Q104.61 6.94 104.61 8.40L104.61 8.40L104.61 8.40Q104.61 9.86 104.09 10.93L104.09 10.93L104.09 10.93Q103.57 12.00 102.61 12.58L102.61 12.58L102.61 12.58Q101.65 13.16 100.35 13.16L100.35 13.16L100.35 13.16Q99.05 13.16 98.09 12.58L98.09 12.58L98.09 12.58Q97.13 12.00 96.61 10.93L96.61 10.93L96.61 10.93Q96.10 9.86 96.10 8.40L96.10 8.40L96.10 8.40Q96.10 6.94 96.61 5.87L96.61 5.87L96.61 5.87Q97.13 4.80 98.09 4.22L98.09 4.22L98.09 4.22Q99.05 3.64 100.35 3.64L100.35 3.64ZM100.35 4.28L100.35 4.28Q99.27 4.28 98.48 4.78L98.48 4.78L98.48 4.78Q97.69 5.28 97.27 6.21L97.27 6.21L97.27 6.21Q96.84 7.14 96.84 8.40L96.84 8.40L96.84 8.40Q96.84 9.66 97.27 10.59L97.27 10.59L97.27 10.59Q97.69 11.52 98.48 12.02L98.48 12.02L98.48 12.02Q99.27 12.52 100.35 12.52L100.35 12.52L100.35 12.52Q101.43 12.52 102.23 12.02L102.23 12.02L102.23 12.02Q103.03 11.52 103.45 10.59L103.45 10.59L103.45 10.59Q103.88 9.66 103.88 8.40L103.88 8.40L103.88 8.40Q103.88 7.14 103.45 6.21L103.45 6.21L103.45 6.21Q103.03 5.28 102.23 4.78L102.23 4.78L102.23 4.78Q101.43 4.28 100.35 4.28L100.35 4.28ZM120.88 13.02L120.05 13.02L117.40 9.02L117.36 9.02L114.63 9.02L114.63 13.02L113.93 13.02L113.93 3.78L117.36 3.78L117.36 3.78Q118.75 3.78 119.57 4.48L119.57 4.48L119.57 4.48Q120.39 5.18 120.39 6.40L120.39 6.40L120.39 6.40Q120.39 7.41 119.80 8.07L119.80 8.07L119.80 8.07Q119.21 8.74 118.19 8.93L118.19 8.93L120.88 13.02ZM114.63 4.42L114.63 8.36L117.35 8.36L117.35 8.36Q118.47 8.36 119.06 7.85L119.06 7.85L119.06 7.85Q119.66 7.35 119.66 6.40L119.66 6.40L119.66 6.40Q119.66 5.45 119.06 4.93L119.06 4.93L119.06 4.93Q118.47 4.42 117.35 4.42L117.35 4.42L114.63 4.42ZM136.18 13.02L135.02 10.12L130.59 10.12L129.44 13.02L128.70 13.02L132.40 3.78L133.22 3.78L136.92 13.02L136.18 13.02ZM130.86 9.48L134.76 9.48L133.15 5.45L132.82 4.47L132.80 4.47L132.47 5.42L130.86 9.48ZM150.61 3.78L150.61 4.42L147.24 4.42L147.24 13.02L146.54 13.02L146.54 4.42L143.16 4.42L143.16 3.78L150.61 3.78ZM160.08 12.38L165.91 12.38L165.91 13.02L159.38 13.02L159.38 3.78L165.69 3.78L165.69 4.42L160.08 4.42L160.08 7.99L164.51 7.99L164.51 8.65L160.08 8.65L160.08 12.38ZM175.03 11.87L175.03 11.87Q175.31 11.87 175.48 12.05L175.48 12.05L175.48 12.05Q175.66 12.22 175.66 12.50L175.66 12.50L175.66 12.50Q175.66 12.78 175.48 12.96L175.48 12.96L175.48 12.96Q175.31 13.13 175.03 13.13L175.03 13.13L175.03 13.13Q174.75 13.13 174.57 12.96L174.57 12.96L174.57 12.96Q174.40 12.78 174.40 12.50L174.40 12.50L174.40 12.50Q174.40 12.22 174.57 12.05L174.57 12.05L174.57 12.05Q174.75 11.87 175.03 11.87L175.03 11.87ZM185.72 12.38L191.27 12.38L191.27 13.02L185.02 13.02L185.02 3.78L185.72 3.78L185.72 12.38ZM200.73 12.38L206.57 12.38L206.57 13.02L200.03 13.02L200.03 3.78L206.35 3.78L206.35 4.42L200.73 4.42L200.73 7.99L205.17 7.99L205.17 8.65L200.73 8.65L200.73 12.38ZM221.89 13.02L220.72 10.12L216.30 10.12L215.15 13.02L214.41 13.02L218.11 3.78L218.93 3.78L222.63 13.02L221.89 13.02ZM216.57 9.48L220.47 9.48L218.86 5.45L218.53 4.47L218.51 4.47L218.18 5.42L216.57 9.48ZM238.29 13.02L237.47 13.02L234.82 9.02L234.78 9.02L232.05 9.02L232.05 13.02L231.35 13.02L231.35 3.78L234.78 3.78L234.78 3.78Q236.17 3.78 236.99 4.48L236.99 4.48L236.99 4.48Q237.80 5.18 237.80 6.40L237.80 6.40L237.80 6.40Q237.80 7.41 237.22 8.07L237.22 8.07L237.22 8.07Q236.63 8.74 235.61 8.93L235.61 8.93L238.29 13.02ZM232.05 4.42L232.05 8.36L234.77 8.36L234.77 8.36Q235.89 8.36 236.48 7.85L236.48 7.85L236.48 7.85Q237.08 7.35 237.08 6.40L237.08 6.40L237.08 6.40Q237.08 5.45 236.48 4.93L236.48 4.93L236.48 4.93Q235.89 4.42 234.77 4.42L234.77 4.42L232.05 4.42ZM254.41 3.78L254.41 13.02L253.54 13.02L248.64 5.77L247.95 4.54L247.94 4.54L247.98 5.70L247.98 13.02L247.31 13.02L247.31 3.78L248.19 3.78L253.08 11.02L253.78 12.26L253.75 11.10L253.75 3.78L254.41 3.78ZM264.40 11.87L264.40 11.87Q264.68 11.87 264.86 12.05L264.86 12.05L264.86 12.05Q265.03 12.22 265.03 12.50L265.03 12.50L265.03 12.50Q265.03 12.78 264.86 12.96L264.86 12.96L264.86 12.96Q264.68 13.13 264.40 13.13L264.40 13.13L264.40 13.13Q264.12 13.13 263.95 12.96L263.95 12.96L263.95 12.96Q263.77 12.78 263.77 12.50L263.77 12.50L263.77 12.50Q263.77 12.22 263.95 12.05L263.95 12.05L263.95 12.05Q264.12 11.87 264.40 11.87L264.40 11.87ZM277.45 8.50L281.25 8.50L281.25 13.02L280.69 13.02L280.66 11.41L280.66 11.41Q280.28 12.25 279.48 12.71L279.48 12.71L279.48 12.71Q278.67 13.16 277.48 13.16L277.48 13.16L277.48 13.16Q276.22 13.16 275.27 12.58L275.27 12.58L275.27 12.58Q274.33 12.00 273.82 10.92L273.82 10.92L273.82 10.92Q273.31 9.84 273.31 8.40L273.31 8.40L273.31 8.40Q273.31 6.96 273.83 5.88L273.83 5.88L273.83 5.88Q274.36 4.80 275.31 4.22L275.31 4.22L275.31 4.22Q276.26 3.64 277.52 3.64L277.52 3.64L277.52 3.64Q278.94 3.64 279.83 4.20L279.83 4.20L279.83 4.20Q280.73 4.76 281.18 5.91L281.18 5.91L280.53 6.24L280.53 6.24Q280.21 5.28 279.45 4.78L279.45 4.78L279.45 4.78Q278.68 4.28 277.52 4.28L277.52 4.28L277.52 4.28Q276.49 4.28 275.70 4.78L275.70 4.78L275.70 4.78Q274.92 5.28 274.48 6.21L274.48 6.21L274.48 6.21Q274.05 7.14 274.05 8.40L274.05 8.40L274.05 8.40Q274.05 10.32 274.97 11.42L274.97 11.42L274.97 11.42Q275.88 12.52 277.51 12.52L277.51 12.52L277.51 12.52Q278.52 12.52 279.22 12.12L279.22 12.12L279.22 12.12Q279.92 11.72 280.25 11.07L280.25 11.07L280.25 11.07Q280.59 10.42 280.59 9.67L280.59 9.67L280.59 9.16L277.45 9.16L277.45 8.50ZM297.67 13.02L296.84 13.02L294.20 9.02L294.15 9.02L291.42 9.02L291.42 13.02L290.72 13.02L290.72 3.78L294.15 3.78L294.15 3.78Q295.54 3.78 296.36 4.48L296.36 4.48L296.36 4.48Q297.18 5.18 297.18 6.40L297.18 6.40L297.18 6.40Q297.18 7.41 296.59 8.07L296.59 8.07L296.59 8.07Q296.00 8.74 294.98 8.93L294.98 8.93L297.67 13.02ZM291.42 4.42L291.42 8.36L294.14 8.36L294.14 8.36Q295.26 8.36 295.85 7.85L295.85 7.85L295.85 7.85Q296.45 7.35 296.45 6.40L296.45 6.40L296.45 6.40Q296.45 5.45 295.85 4.93L295.85 4.93L295.85 4.93Q295.26 4.42 294.14 4.42L294.14 4.42L291.42 4.42ZM310.31 3.64L310.31 3.64Q311.61 3.64 312.57 4.22L312.57 4.22L312.57 4.22Q313.53 4.80 314.05 5.87L314.05 5.87L314.05 5.87Q314.57 6.94 314.57 8.40L314.57 8.40L314.57 8.40Q314.57 9.86 314.05 10.93L314.05 10.93L314.05 10.93Q313.53 12.00 312.57 12.58L312.57 12.58L312.57 12.58Q311.61 13.16 310.31 13.16L310.31 13.16L310.31 13.16Q309.01 13.16 308.05 12.58L308.05 12.58L308.05 12.58Q307.09 12.00 306.57 10.93L306.57 10.93L306.57 10.93Q306.05 9.86 306.05 8.40L306.05 8.40L306.05 8.40Q306.05 6.94 306.57 5.87L306.57 5.87L306.57 5.87Q307.09 4.80 308.05 4.22L308.05 4.22L308.05 4.22Q309.01 3.64 310.31 3.64L310.31 3.64ZM310.31 4.28L310.31 4.28Q309.23 4.28 308.44 4.78L308.44 4.78L308.44 4.78Q307.65 5.28 307.22 6.21L307.22 6.21L307.22 6.21Q306.80 7.14 306.80 8.40L306.80 8.40L306.80 8.40Q306.80 9.66 307.22 10.59L307.22 10.59L307.22 10.59Q307.65 11.52 308.44 12.02L308.44 12.02L308.44 12.02Q309.23 12.52 310.31 12.52L310.31 12.52L310.31 12.52Q311.39 12.52 312.19 12.02L312.19 12.02L312.19 12.02Q312.98 11.52 313.41 10.59L313.41 10.59L313.41 10.59Q313.84 9.66 313.84 8.40L313.84 8.40L313.84 8.40Q313.84 7.14 313.41 6.21L313.41 6.21L313.41 6.21Q312.98 5.28 312.19 4.78L312.19 4.78L312.19 4.78Q311.39 4.28 310.31 4.28L310.31 4.28ZM328.34 6.54L326.48 13.02L325.61 13.02L322.73 3.78L323.48 3.78L326.05 12.45L328.47 3.78L329.28 3.78L331.70 12.46L334.29 3.78L335.01 3.78L332.12 13.02L331.25 13.02L329.39 6.54L328.87 4.54L328.86 4.54L328.34 6.54Z"></path></g></svg>