<svg data-v-423bf9ae="" xmlns="http://www.w3.org/2000/svg" viewBox="0 0 398.9911087553814 60" class="font"><!----><!----><!----><g data-v-423bf9ae="" id="1d918bbf-1eba-44d6-90e5-d92149aac2f0" fill="white" transform="matrix(4.4510387268192755,0,0,4.4510387268192755,-6.3649806002169385,0)"><path d="M2.34 9.35L2.34 5.92L6.34 5.92L6.34 5.05L2.34 5.05L2.34 1.44L6.93 1.44L6.93 0.57L1.43 0.57L1.43 10.22L7.08 10.22L7.08 9.35ZM12.05 3.54C11.24 3.54 10.18 3.92 9.79 4.86L9.79 3.68L8.89 3.68L8.89 10.22L9.79 10.22L9.79 6.59C9.81 5.01 10.92 4.42 11.97 4.42C13.02 4.42 13.82 5.19 13.82 6.45L13.82 10.22L14.71 10.22L14.71 6.41C14.71 4.61 13.64 3.54 12.05 3.54ZM22.33 3.68L22.33 4.94C21.84 4.06 20.83 3.54 19.73 3.54C17.89 3.54 16.41 4.96 16.41 6.94C16.41 8.93 17.91 10.36 19.73 10.36C20.82 10.36 21.84 9.84 22.33 8.96L22.33 9.30C22.33 11.82 21.28 12.63 19.68 12.63C18.90 12.63 18.09 12.24 17.61 11.47L16.86 11.89C17.50 12.95 18.58 13.48 19.68 13.48C21.81 13.48 23.23 12.42 23.23 9.25L23.23 3.68ZM19.80 9.51C18.42 9.51 17.30 8.39 17.30 6.93C17.30 5.49 18.42 4.40 19.80 4.40C21.10 4.40 22.33 5.39 22.33 6.97C22.33 8.48 21.15 9.51 19.80 9.51ZM30.94 3.68L30.94 4.94C30.45 4.06 29.44 3.54 28.34 3.54C26.50 3.54 25.02 4.96 25.02 6.94C25.02 8.93 26.52 10.36 28.34 10.36C29.43 10.36 30.45 9.84 30.94 8.95L30.94 10.22L31.84 10.22L31.84 3.68ZM28.41 9.51C27.03 9.51 25.91 8.39 25.91 6.93C25.91 5.49 27.03 4.40 28.41 4.40C29.71 4.40 30.94 5.39 30.94 6.97C30.94 8.48 29.76 9.51 28.41 9.51ZM39.55 3.68L39.55 4.94C39.06 4.06 38.05 3.54 36.95 3.54C35.11 3.54 33.63 4.96 33.63 6.94C33.63 8.93 35.13 10.36 36.95 10.36C38.04 10.36 39.06 9.84 39.55 8.96L39.55 9.30C39.55 11.82 38.50 12.63 36.90 12.63C36.12 12.63 35.31 12.24 34.83 11.47L34.08 11.89C34.72 12.95 35.80 13.48 36.90 13.48C39.03 13.48 40.45 12.42 40.45 9.25L40.45 3.68ZM37.02 9.51C35.64 9.51 34.52 8.39 34.52 6.93C34.52 5.49 35.64 4.40 37.02 4.40C38.32 4.40 39.55 5.39 39.55 6.97C39.55 8.48 38.37 9.51 37.02 9.51ZM48.79 6.93C48.79 4.86 47.43 3.54 45.57 3.54C43.72 3.54 42.24 4.86 42.24 6.93C42.24 9.00 43.72 10.36 45.57 10.36C46.80 10.36 47.92 9.77 48.50 8.72L47.73 8.39C47.29 9.10 46.49 9.51 45.60 9.51C44.28 9.51 43.30 8.72 43.15 7.32L48.78 7.32C48.79 7.20 48.79 7.06 48.79 6.93ZM43.16 6.55C43.33 5.15 44.28 4.40 45.57 4.40C46.84 4.40 47.78 5.19 47.91 6.55ZM59.30 5.08C60.20 4.72 60.58 3.82 60.58 2.95C60.58 1.46 59.57 0.57 58.02 0.57L54.52 0.57L54.52 10.22L58.37 10.22C60.07 10.22 61.10 8.93 61.10 7.56C61.10 6.55 60.54 5.40 59.30 5.08ZM58.00 1.44C59.02 1.44 59.65 2.04 59.65 3.02C59.65 3.98 59.14 4.72 58.18 4.72L55.44 4.72L55.44 1.44ZM58.21 9.35L55.44 9.35L55.44 5.53L58.17 5.53C59.43 5.53 60.17 6.45 60.17 7.49C60.17 8.48 59.46 9.35 58.21 9.35ZM65.97 10.36C67.83 10.36 69.40 9.00 69.40 6.93C69.40 4.86 67.83 3.54 65.97 3.54C64.11 3.54 62.55 4.86 62.55 6.93C62.55 9.00 64.11 10.36 65.97 10.36ZM65.97 9.51C64.58 9.51 63.45 8.48 63.45 6.93C63.45 5.39 64.58 4.40 65.97 4.40C67.34 4.40 68.50 5.39 68.50 6.93C68.50 8.48 67.34 9.51 65.97 9.51ZM76.65 3.68L76.65 4.94C76.16 4.06 75.15 3.54 74.05 3.54C72.21 3.54 70.73 4.96 70.73 6.94C70.73 8.93 72.23 10.36 74.05 10.36C75.14 10.36 76.16 9.84 76.65 8.95L76.65 10.22L77.55 10.22L77.55 3.68ZM74.12 9.51C72.74 9.51 71.62 8.39 71.62 6.93C71.62 5.49 72.74 4.40 74.12 4.40C75.42 4.40 76.65 5.39 76.65 6.97C76.65 8.48 75.47 9.51 74.12 9.51ZM82.74 3.54C81.72 3.54 81.02 4.17 80.70 5.28L80.70 3.68L79.79 3.68L79.79 10.22L80.70 10.22L80.70 7.76C80.70 6.15 81.17 4.41 82.73 4.41C82.96 4.41 83.27 4.45 83.61 4.59L83.78 3.74C83.52 3.61 83.10 3.54 82.74 3.54ZM90.17 0L90.17 4.94C89.68 4.06 88.68 3.54 87.57 3.54C85.74 3.54 84.25 4.96 84.25 6.94C84.25 8.93 85.75 10.36 87.57 10.36C88.66 10.36 89.68 9.84 90.17 8.95L90.17 10.22L91.07 10.22L91.07 0ZM87.64 9.51C86.27 9.51 85.15 8.39 85.15 6.93C85.15 5.49 86.27 4.40 87.64 4.40C88.94 4.40 90.17 5.39 90.17 6.97C90.17 8.48 89.00 9.51 87.64 9.51Z"></path></g><!----><!----></svg>